0
SECTION
2
HEADER
9
$INSUNITS
70
4
9
$ACADVER
1
AC1014
9
$HANDSEED
5
FFFF
0
ENDSEC
0
SECTION
2
TABLES
0
TABLE
2
VPORT
5
8
100
AcDbSymbolTable
0
ENDTAB
0
TABLE
2
LTYPE
5
5
100
AcDbSymbolTable
0
LTYPE
5
14
100
AcDbSymbolTableRecord
100
AcDbLinetypeTableRecord
2
BYBLOCK
70
0
0
LTYPE
5
15
100
AcDbSymbolTableRecord
100
AcDbLinetypeTableRecord
2
BYLAYER
70
0
0
ENDTAB
0
TABLE
2
LAYER
5
2
100
AcDbSymbolTable
70
2
0
LAYER
5
50
100
AcDbSymbolTableRecord
100
AcDbLayerTableRecord
2
0
70
0
6
CONTINUOUS
0
ENDTAB
0
TABLE
2
STYLE
5
3
100
AcDbSymbolTable
70
1
0
STYLE
5
11
100
AcDbSymbolTableRecord
100
AcDbTextStyleTableRecord
2
STANDARD
70
0
0
ENDTAB
0
TABLE
2
VIEW
5
6
100
AcDbSymbolTable
70
0
0
ENDTAB
0
TABLE
2
UCS
5
7
100
AcDbSymbolTable
70
0
0
ENDTAB
0
TABLE
2
APPID
5
9
100
AcDbSymbolTable
70
2
0
APPID
5
12
100
AcDbSymbolTableRecord
100
AcDbRegAppTableRecord
2
ACAD
70
0
0
ENDTAB
0
TABLE
2
DIMSTYLE
5
A
100
AcDbSymbolTable
70
1
0
ENDTAB
0
TABLE
2
BLOCK_RECORD
5
1
100
AcDbSymbolTable
70
1
0
BLOCK_RECORD
5
1F
100
AcDbSymbolTableRecord
100
AcDbBlockTableRecord
2
*MODEL_SPACE
0
BLOCK_RECORD
5
1B
100
AcDbSymbolTableRecord
100
AcDbBlockTableRecord
2
*PAPER_SPACE
0
ENDTAB
0
ENDSEC
0
SECTION
2
BLOCKS
0
BLOCK
5
20
100
AcDbEntity
100
AcDbBlockBegin
2
*MODEL_SPACE
0
ENDBLK
5
21
100
AcDbEntity
100
AcDbBlockEnd
0
BLOCK
5
1C
100
AcDbEntity
100
AcDbBlockBegin
2
*PAPER_SPACE
0
ENDBLK
5
1D
100
AcDbEntity
100
AcDbBlockEnd
0
ENDSEC
0
SECTION
2
ENTITIES
0
LWPOLYLINE
5
100
100
AcDbEntity
8
0
100
AcDbPolyline
90
22
70
1
43
0.0
10
8.9400000000000031
20
53.125000000000007
10
-6.0599999999999969
20
65.125
10
-8.4995490841874854
20
65.125
10
-8.4995490841874854
20
115
42
0.41421356237309509
10
-18.499549084187468
20
124.99999999999999
10
-66.999999999999929
20
124.99999999999999
42
0.41421356237309209
10
-77.749999999999972
20
114.25
10
-137.75
20
114.25
10
-137.75
20
124.99999999999999
10
-139.63550200803292
20
124.99999999999999
42
0.4097165642940675
10
-199.99999999999997
20
63.699999999997345
10
-199.99999999999972
20
-63.699999999999967
42
0.40971656429408804
10
-139.63550200802612
20
-125
10
-137.75
20
-125
10
-137.75
20
-114.25347285603864
10
-77.749999999999986
20
-114.25347285603863
42
0.41421356237309548
10
-67.00347285603867
20
-124.99999999999997
10
-18.499549084187549
20
-125
42
0.41421356237309742
10
-8.4995490841874801
20
-114.99999999999993
10
-8.4995490841874766
20
-65.125
10
-6.0599999999999969
20
-65.125
10
8.9400000000000013
20
-53.125000000000007
0
LWPOLYLINE
5
101
100
AcDbEntity
8
0
100
AcDbPolyline
90
4
70
1
43
0.0
10
-130.50999999999999
20
80.000000000000028
10
-130.50999999999996
20
64.900000000000034
10
-136.60999999999996
20
64.900000000000034
10
-136.61000000000001
20
80.000000000000028
0
LWPOLYLINE
5
102
100
AcDbEntity
8
0
100
AcDbPolyline
90
4
70
1
43
0.0
10
-130.51000000000002
20
-79.999999999999915
10
-136.61000000000001
20
-79.999999999999915
10
-136.61000000000001
20
-64.899999999999935
10
-130.51000000000002
20
-64.899999999999935
0
LWPOLYLINE
5
103
100
AcDbEntity
8
0
100
AcDbPolyline
90
4
70
1
43
0.0
10
-35.74499999999999
20
35.612500000000011
10
-35.74499999999999
20
29.512500000000014
10
-50.844999999999992
20
29.512500000000014
10
-50.844999999999992
20
35.612500000000011
0
LWPOLYLINE
5
104
100
AcDbEntity
8
0
100
AcDbPolyline
90
4
70
1
43
0.0
10
-87.980000000000004
20
35.612500000000018
10
-87.980000000000004
20
29.512500000000017
10
-103.08
20
29.512500000000017
10
-103.08
20
35.612500000000018
0
LWPOLYLINE
5
105
100
AcDbEntity
8
0
100
AcDbPolyline
90
4
70
1
43
0.0
10
-87.97999999999999
20
-37.112500000000018
10
-103.08
20
-37.112500000000018
10
-103.08
20
-31.012500000000021
10
-87.97999999999999
20
-31.012500000000021
0
LWPOLYLINE
5
106
100
AcDbEntity
8
0
100
AcDbPolyline
90
4
70
1
43
0.0
10
-50.794999999999973
20
-3.0499999999999989
10
-50.794999999999987
20
3.0499999999999998
10
-35.794999999999987
20
3.0500000000000007
10
-35.79499999999998
20
-3.049999999999998
0
LWPOLYLINE
5
107
100
AcDbEntity
8
0
100
AcDbPolyline
90
4
70
1
43
0.0
10
-35.794999999999987
20
-31.012500000000024
10
-35.794999999999987
20
-37.112500000000026
10
-50.794999999999987
20
-37.112500000000026
10
-50.794999999999987
20
-31.012500000000024
0
LWPOLYLINE
5
108
100
AcDbEntity
8
0
100
AcDbPolyline
90
4
70
1
43
0.0
10
-166.38249999999999
20
-31.012500000000006
10
-166.38249999999999
20
-37.112500000000004
10
-181.38249999999999
20
-37.112500000000004
10
-181.38249999999999
20
-31.012500000000006
0
LWPOLYLINE
5
109
100
AcDbEntity
8
0
100
AcDbPolyline
90
4
70
1
43
0.0
10
-181.38249999999996
20
-2.9249999999999918
10
-181.38249999999996
20
3.1750000000000078
10
-166.38249999999996
20
3.1750000000000078
10
-166.38249999999996
20
-2.9249999999999918
0
LWPOLYLINE
5
110
100
AcDbEntity
8
0
100
AcDbPolyline
90
4
70
1
43
0.0
10
-103.07999999999998
20
-3.0499999999999989
10
-103.07999999999998
20
3.0499999999999998
10
-88.029999999999916
20
3.0500000000000007
10
-88.029999999999916
20
-3.049999999999998
0
LWPOLYLINE
5
111
100
AcDbEntity
8
0
100
AcDbPolyline
90
4
70
1
43
0.0
10
-166.33250000000004
20
35.612500000000018
10
-166.33250000000004
20
29.512500000000017
10
-181.4325
20
29.512500000000017
10
-181.4325
20
35.612500000000018
0
CIRCLE
5
112
100
AcDbEntity
8
0
100
AcDbCircle
10
2.3099999999999961
20
48.84375
30
0
40
1.5000000000000004
210
0
220
0
230
-1
0
CIRCLE
5
113
100
AcDbEntity
8
0
100
AcDbCircle
10
-5.1900000000000022
20
48.843750000000021
30
0
40
1.5000000000000009
210
0
220
0
230
-1
0
CIRCLE
5
114
100
AcDbEntity
8
0
100
AcDbCircle
10
-1.4400000000000035
20
1.3877787807814457e-14
30
0
40
1.5
210
0
220
0
230
-1
0
CIRCLE
5
115
100
AcDbEntity
8
0
100
AcDbCircle
10
-5.1900000000000031
20
16.281250000000004
30
0
40
1.5
210
0
220
0
230
-1
0
CIRCLE
5
116
100
AcDbEntity
8
0
100
AcDbCircle
10
2.3099999999999961
20
16.28125
30
0
40
1.5000000000000004
210
0
220
0
230
-1
0
CIRCLE
5
117
100
AcDbEntity
8
0
100
AcDbCircle
10
-1.4400000000000031
20
32.562500000000021
30
0
40
1.5000000000000004
210
0
220
0
230
-1
0
CIRCLE
5
118
100
AcDbEntity
8
0
100
AcDbCircle
10
2.3099999999999961
20
-16.28125
30
0
40
1.5000000000000004
210
0
220
0
230
-1
0
CIRCLE
5
119
100
AcDbEntity
8
0
100
AcDbCircle
10
-5.1900000000000031
20
-16.281249999999989
30
0
40
1.5
210
0
220
0
230
-1
0
CIRCLE
5
120
100
AcDbEntity
8
0
100
AcDbCircle
10
-1.4400000000000037
20
-32.5625
30
0
40
1.5000000000000004
210
0
220
0
230
-1
0
CIRCLE
5
121
100
AcDbEntity
8
0
100
AcDbCircle
10
-5.1900000000000031
20
-48.84375
30
0
40
1.5
210
0
220
0
230
-1
0
CIRCLE
5
122
100
AcDbEntity
8
0
100
AcDbCircle
10
2.3099999999999961
20
-48.84375
30
0
40
1.5000000000000004
210
0
220
0
230
-1
0
CIRCLE
5
123
100
AcDbEntity
8
0
100
AcDbCircle
10
-160.99999999999997
20
-13.999999999999968
30
0
40
1.4999999999999973
210
0
220
0
230
1
0
CIRCLE
5
124
100
AcDbEntity
8
0
100
AcDbCircle
10
-160.99999999999994
20
13.999999999999993
30
0
40
1.4999999999999973
210
0
220
0
230
1
0
CIRCLE
5
125
100
AcDbEntity
8
0
100
AcDbCircle
10
-126.64999999999999
20
-111.25
30
0
40
1.4999999999999973
210
0
220
0
230
1
0
CIRCLE
5
126
100
AcDbEntity
8
0
100
AcDbCircle
10
-89.149999999999977
20
-111.25
30
0
40
1.4999999999999973
210
0
220
0
230
1
0
CIRCLE
5
127
100
AcDbEntity
8
0
100
AcDbCircle
10
-89.149999999999977
20
-100.75000000000001
30
0
40
1.4999999999999973
210
0
220
0
230
1
0
CIRCLE
5
128
100
AcDbEntity
8
0
100
AcDbCircle
10
-126.64999999999999
20
-100.75000000000001
30
0
40
1.4999999999999973
210
0
220
0
230
1
0
CIRCLE
5
129
100
AcDbEntity
8
0
100
AcDbCircle
10
-126.64999999999995
20
111.25
30
0
40
1.4999999999999973
210
0
220
0
230
1
0
CIRCLE
5
130
100
AcDbEntity
8
0
100
AcDbCircle
10
-89.149999999999949
20
111.25
30
0
40
1.4999999999999973
210
0
220
0
230
1
0
CIRCLE
5
131
100
AcDbEntity
8
0
100
AcDbCircle
10
-89.149999999999949
20
100.75000000000001
30
0
40
1.4999999999999973
210
0
220
0
230
1
0
CIRCLE
5
132
100
AcDbEntity
8
0
100
AcDbCircle
10
-126.64999999999999
20
100.75000000000003
30
0
40
1.5000000000000282
210
0
220
0
230
1
0
CIRCLE
5
133
100
AcDbEntity
8
0
100
AcDbCircle
10
-57.124774542093732
20
85.999999999999957
30
0
40
1.500000000000004
210
0
220
0
230
1
0
CIRCLE
5
134
100
AcDbEntity
8
0
100
AcDbCircle
10
-29.124774542093775
20
85.999999999999957
30
0
40
1.5000000000000009
210
0
220
0
230
1
0
CIRCLE
5
135
100
AcDbEntity
8
0
100
AcDbCircle
10
-57.124774542093668
20
-85.999999999999943
30
0
40
1.500000000000004
210
0
220
0
230
1
0
CIRCLE
5
136
100
AcDbEntity
8
0
100
AcDbCircle
10
-29.124774542093689
20
-85.999999999999943
30
0
40
1.5000000000000009
210
0
220
0
230
1
0
CIRCLE
5
137
100
AcDbEntity
8
0
100
AcDbCircle
10
-154.93392761772529
20
-75.75845704263071
30
0
40
1.4999999999999973
210
0
220
0
230
1
0
CIRCLE
5
138
100
AcDbEntity
8
0
100
AcDbCircle
10
-140.93392761772526
20
-100.007168348595
30
0
40
1.5000000000000402
210
0
220
0
230
1
0
CIRCLE
5
139
100
AcDbEntity
8
0
100
AcDbCircle
10
-154.93392761772591
20
75.75845704262855
30
0
40
1.4999999999999669
210
0
220
0
230
1
0
CIRCLE
5
140
100
AcDbEntity
8
0
100
AcDbCircle
10
-140.93392761772566
20
100.00716834859269
30
0
40
1.4999999999996836
210
0
220
0
230
1
0
CIRCLE
5
141
100
AcDbEntity
8
0
100
AcDbCircle
10
-153.99799999999999
20
45.167626063075204
30
0
40
1.4999999999999973
210
0
220
0
230
1
0
CIRCLE
5
142
100
AcDbEntity
8
0
100
AcDbCircle
10
-153.99799999999999
20
-44.832373936924782
30
0
40
1.4999999999999973
210
0
220
0
230
1
0
ENDSEC
0
SECTION
2
OBJECTS
0
DICTIONARY
5
C
100
AcDbDictionary
3
ACAD_GROUP
350
D
3
ACAD_MLINESTYLE
350
17
0
DICTIONARY
5
D
100
AcDbDictionary
0
DICTIONARY
5
1A
330
C
100
AcDbDictionary
0
DICTIONARY
5
17
100
AcDbDictionary
0
ENDSEC
0
EOF
