0
SECTION
2
HEADER
9
$INSUNITS
70
4
9
$ACADVER
1
AC1014
9
$HANDSEED
5
FFFF
0
ENDSEC
0
SECTION
2
TABLES
0
TABLE
2
VPORT
5
8
100
AcDbSymbolTable
0
ENDTAB
0
TABLE
2
LTYPE
5
5
100
AcDbSymbolTable
0
LTYPE
5
14
100
AcDbSymbolTableRecord
100
AcDbLinetypeTableRecord
2
BYBLOCK
70
0
0
LTYPE
5
15
100
AcDbSymbolTableRecord
100
AcDbLinetypeTableRecord
2
BYLAYER
70
0
0
ENDTAB
0
TABLE
2
LAYER
5
2
100
AcDbSymbolTable
70
2
0
LAYER
5
50
100
AcDbSymbolTableRecord
100
AcDbLayerTableRecord
2
0
70
0
6
CONTINUOUS
0
ENDTAB
0
TABLE
2
STYLE
5
3
100
AcDbSymbolTable
70
1
0
STYLE
5
11
100
AcDbSymbolTableRecord
100
AcDbTextStyleTableRecord
2
STANDARD
70
0
0
ENDTAB
0
TABLE
2
VIEW
5
6
100
AcDbSymbolTable
70
0
0
ENDTAB
0
TABLE
2
UCS
5
7
100
AcDbSymbolTable
70
0
0
ENDTAB
0
TABLE
2
APPID
5
9
100
AcDbSymbolTable
70
2
0
APPID
5
12
100
AcDbSymbolTableRecord
100
AcDbRegAppTableRecord
2
ACAD
70
0
0
ENDTAB
0
TABLE
2
DIMSTYLE
5
A
100
AcDbSymbolTable
70
1
0
ENDTAB
0
TABLE
2
BLOCK_RECORD
5
1
100
AcDbSymbolTable
70
1
0
BLOCK_RECORD
5
1F
100
AcDbSymbolTableRecord
100
AcDbBlockTableRecord
2
*MODEL_SPACE
0
BLOCK_RECORD
5
1B
100
AcDbSymbolTableRecord
100
AcDbBlockTableRecord
2
*PAPER_SPACE
0
ENDTAB
0
ENDSEC
0
SECTION
2
BLOCKS
0
BLOCK
5
20
100
AcDbEntity
100
AcDbBlockBegin
2
*MODEL_SPACE
0
ENDBLK
5
21
100
AcDbEntity
100
AcDbBlockEnd
0
BLOCK
5
1C
100
AcDbEntity
100
AcDbBlockBegin
2
*PAPER_SPACE
0
ENDBLK
5
1D
100
AcDbEntity
100
AcDbBlockEnd
0
ENDSEC
0
SECTION
2
ENTITIES
0
LINE
5
100
100
AcDbEntity
8
0
100
AcDbLine
10
41
20
-41.5
30
0
11
41
21
-44.5
31
0
0
LINE
5
101
100
AcDbEntity
8
0
100
AcDbLine
10
41
20
-44.5
30
0
11
28.354969186116804
21
-44.5
31
0
0
LINE
5
102
100
AcDbEntity
8
0
100
AcDbLine
10
28.354969186116804
20
-44.5
30
0
11
23.354969186116801
21
-44.497929505784668
31
0
0
LINE
5
103
100
AcDbEntity
8
0
100
AcDbLine
10
23.354969186116801
20
-44.497929505784668
30
0
11
23.349999999999991
21
-56.497929505784668
31
0
0
LINE
5
104
100
AcDbEntity
8
0
100
AcDbLine
10
23.349999999999991
20
-56.497929505784668
30
0
11
28.349999999999994
21
-56.5
31
0
0
LINE
5
105
100
AcDbEntity
8
0
100
AcDbLine
10
28.349999999999994
20
-56.5
30
0
11
51
21
-56.5
31
0
0
LINE
5
106
100
AcDbEntity
8
0
100
AcDbLine
10
51
20
-56.5
30
0
11
51
21
-48.124985318338133
31
0
0
ARC
5
107
100
AcDbEntity
8
0
100
AcDbCircle
10
61
20
-48.124985318338069
30
0
40
10.000000000000002
210
0
220
0
230
1
100
AcDbArc
50
112.95117042468607
51
180
0
LINE
5
108
100
AcDbEntity
8
0
100
AcDbLine
10
57.10053501478636
20
-38.916610172358574
30
0
11
77.158586890963377
21
-30.42263922495404
31
0
0
LINE
5
109
100
AcDbEntity
8
0
100
AcDbLine
10
77.158586890963377
20
-30.42263922495404
30
0
11
126.70193363341511
21
-30.42263922495404
31
0
0
LINE
5
110
100
AcDbEntity
8
0
100
AcDbLine
10
126.70193363341511
20
-30.42263922495404
30
0
11
133.12676056373024
21
-32.750000000782777
31
0
0
LINE
5
111
100
AcDbEntity
8
0
100
AcDbLine
10
133.12676056373024
20
-32.750000000782777
30
0
11
148.99999999999997
21
-32.750000000782777
31
0
0
LINE
5
112
100
AcDbEntity
8
0
100
AcDbLine
10
148.99999999999997
20
-32.750000000782777
30
0
11
148.99999999999997
21
32.749999999217223
31
0
0
LINE
5
113
100
AcDbEntity
8
0
100
AcDbLine
10
148.99999999999997
20
32.749999999217223
30
0
11
132.42647058819375
21
32.749999999217216
31
0
0
LINE
5
114
100
AcDbEntity
8
0
100
AcDbLine
10
132.42647058819375
20
32.749999999217216
30
0
11
100
21
21.4999999991972
31
0
0
LINE
5
115
100
AcDbEntity
8
0
100
AcDbLine
10
100
20
21.4999999991972
30
0
11
61.017187615599575
21
38.604703393066835
31
0
0
ARC
5
116
100
AcDbEntity
8
0
100
AcDbCircle
10
65.0351773722481
20
47.761982372953128
30
0
40
10.000000000000004
210
0
220
0
230
1
100
AcDbArc
50
198.74769870072012
51
246.30931059629219
0
LINE
5
117
100
AcDbEntity
8
0
100
AcDbLine
10
55.565746977971983
20
44.547968059363384
30
0
11
51.000000000180506
21
58
31
0
0
LINE
5
118
100
AcDbEntity
8
0
100
AcDbLine
10
51.000000000180506
20
58
30
0
11
36.000000000180535
21
80.360000000000014
31
0
0
LINE
5
119
100
AcDbEntity
8
0
100
AcDbLine
10
36.000000000180535
20
80.360000000000014
30
0
11
36.000000000180535
21
43.000000000000007
31
0
0
LINE
5
120
100
AcDbEntity
8
0
100
AcDbLine
10
36.000000000180535
20
43.000000000000007
30
0
11
45.340603842019121
21
43.000000000000007
31
0
0
ARC
5
121
100
AcDbEntity
8
0
100
AcDbCircle
10
45.340603842019256
20
42
30
0
40
0.99999999999993761
210
0
220
-0
230
1
100
AcDbArc
50
23.198590513646845
51
90.000000000007731
0
LINE
5
122
100
AcDbEntity
8
0
100
AcDbLine
10
46.259748872037264
20
42.393919298579121
30
0
11
48.191450300180598
21
37.886615966243632
31
0
0
ARC
5
123
100
AcDbEntity
8
0
100
AcDbCircle
10
38.99999999999973
20
33.947422980452629
30
0
40
9.9999999999999911
210
0
220
0
230
1
100
AcDbArc
50
0
51
23.198590513643971
0
LINE
5
124
100
AcDbEntity
8
0
100
AcDbLine
10
48.999999999999716
20
33.947422980452288
30
0
11
48.999999999999069
21
12.239334038855741
31
0
0
LINE
5
125
100
AcDbEntity
8
0
100
AcDbLine
10
48.999999999999069
20
12.239334038855741
30
0
11
21.000000000000007
21
12.239334038855738
31
0
0
LINE
5
126
100
AcDbEntity
8
0
100
AcDbLine
10
21.000000000000007
20
12.236332190133826
30
0
11
10.000000000000004
21
12.236332190133828
31
0
0
LINE
5
127
100
AcDbEntity
8
0
100
AcDbLine
10
10.000000000000004
20
12.236332190133828
30
0
11
9.9999999999999982
21
-10.859679196244601
31
0
0
LINE
5
128
100
AcDbEntity
8
0
100
AcDbLine
10
9.9999999999999982
20
-10.859679196244601
30
0
11
48.08858606722238
21
-10.85967919624461
31
0
0
SPLINE
5
129
100
AcDbEntity
8
0
100
AcDbSpline
70
0
71
2
72
6
73
3
74
0
42
0.000000001
43
0.0000000001
44
0.0000000001
40
0
40
0
40
0
40
0.24925262325723935
40
0.24925262325723935
40
0.24925262325723935
10
41
20
-41.5
30
0
10
46.36710012463142
20
-25.680481535334643
30
0
10
48.08858606722238
20
-10.85967919624461
30
0
0
LWPOLYLINE
5
130
100
AcDbEntity
8
0
100
AcDbPolyline
90
4
70
1
43
0.0
10
83.999999999999943
20
2.9999999999999938
10
113.99999999999994
20
2.9999999999999938
10
113.99999999999994
20
-3.0000000000000062
10
83.999999999999943
20
-3.0000000000000062
0
ENDSEC
0
SECTION
2
OBJECTS
0
DICTIONARY
5
C
100
AcDbDictionary
3
ACAD_GROUP
350
D
3
ACAD_MLINESTYLE
350
17
0
DICTIONARY
5
D
100
AcDbDictionary
0
DICTIONARY
5
1A
330
C
100
AcDbDictionary
0
DICTIONARY
5
17
100
AcDbDictionary
0
ENDSEC
0
EOF
