0
SECTION
2
HEADER
9
$INSUNITS
70
4
9
$ACADVER
1
AC1014
9
$HANDSEED
5
FFFF
0
ENDSEC
0
SECTION
2
TABLES
0
TABLE
2
VPORT
5
8
100
AcDbSymbolTable
0
ENDTAB
0
TABLE
2
LTYPE
5
5
100
AcDbSymbolTable
0
LTYPE
5
14
100
AcDbSymbolTableRecord
100
AcDbLinetypeTableRecord
2
BYBLOCK
70
0
0
LTYPE
5
15
100
AcDbSymbolTableRecord
100
AcDbLinetypeTableRecord
2
BYLAYER
70
0
0
ENDTAB
0
TABLE
2
LAYER
5
2
100
AcDbSymbolTable
70
2
0
LAYER
5
50
100
AcDbSymbolTableRecord
100
AcDbLayerTableRecord
2
0
70
0
6
CONTINUOUS
0
ENDTAB
0
TABLE
2
STYLE
5
3
100
AcDbSymbolTable
70
1
0
STYLE
5
11
100
AcDbSymbolTableRecord
100
AcDbTextStyleTableRecord
2
STANDARD
70
0
0
ENDTAB
0
TABLE
2
VIEW
5
6
100
AcDbSymbolTable
70
0
0
ENDTAB
0
TABLE
2
UCS
5
7
100
AcDbSymbolTable
70
0
0
ENDTAB
0
TABLE
2
APPID
5
9
100
AcDbSymbolTable
70
2
0
APPID
5
12
100
AcDbSymbolTableRecord
100
AcDbRegAppTableRecord
2
ACAD
70
0
0
ENDTAB
0
TABLE
2
DIMSTYLE
5
A
100
AcDbSymbolTable
70
1
0
ENDTAB
0
TABLE
2
BLOCK_RECORD
5
1
100
AcDbSymbolTable
70
1
0
BLOCK_RECORD
5
1F
100
AcDbSymbolTableRecord
100
AcDbBlockTableRecord
2
*MODEL_SPACE
0
BLOCK_RECORD
5
1B
100
AcDbSymbolTableRecord
100
AcDbBlockTableRecord
2
*PAPER_SPACE
0
ENDTAB
0
ENDSEC
0
SECTION
2
BLOCKS
0
BLOCK
5
20
100
AcDbEntity
100
AcDbBlockBegin
2
*MODEL_SPACE
0
ENDBLK
5
21
100
AcDbEntity
100
AcDbBlockEnd
0
BLOCK
5
1C
100
AcDbEntity
100
AcDbBlockBegin
2
*PAPER_SPACE
0
ENDBLK
5
1D
100
AcDbEntity
100
AcDbBlockEnd
0
ENDSEC
0
SECTION
2
ENTITIES
0
SPLINE
5
100
100
AcDbEntity
8
0
100
AcDbSpline
70
0
71
3
72
8
73
4
74
0
42
0.000000001
43
0.0000000001
44
0.0000000001
40
0
40
0
40
0
40
0
40
0.91475628963938493
40
0.91475628963938493
40
0.91475628963938493
40
0.91475628963938493
10
48.999999999999069
20
12.239334038855741
30
0
10
49.290513323596841
20
4.4909703649931787
30
0
10
48.986708679337177
20
-3.2087007133800904
30
0
10
48.088586067220092
20
-10.859679196264068
30
0
0
SPLINE
5
101
100
AcDbEntity
8
0
100
AcDbSpline
70
0
71
2
72
6
73
3
74
0
42
0.000000001
43
0.0000000001
44
0.0000000001
40
0
40
0
40
0
40
0.24925262325723935
40
0.24925262325723935
40
0.24925262325723935
10
41
20
-41.5
30
0
10
46.36710012463142
20
-25.680481535334643
30
0
10
48.08858606722238
20
-10.85967919624461
30
0
0
LINE
5
102
100
AcDbEntity
8
0
100
AcDbLine
10
41
20
-41.5
30
0
11
23.349999999999991
21
-41.5
31
0
0
LINE
5
103
100
AcDbEntity
8
0
100
AcDbLine
10
23.349999999999991
20
-41.5
30
0
11
23.349999999999991
21
-56.5
31
0
0
LINE
5
104
100
AcDbEntity
8
0
100
AcDbLine
10
23.349999999999991
20
-56.5
30
0
11
51
21
-56.5
31
0
0
LINE
5
105
100
AcDbEntity
8
0
100
AcDbLine
10
51
20
-56.5
30
0
11
51
21
-48.124985318338133
31
0
0
ARC
5
106
100
AcDbEntity
8
0
100
AcDbCircle
10
61
20
-48.124985318338069
30
0
40
10.000000000000002
210
0
220
0
230
1
100
AcDbArc
50
112.95117042468607
51
180
0
LINE
5
107
100
AcDbEntity
8
0
100
AcDbLine
10
57.10053501478636
20
-38.916610172358574
30
0
11
100
21
-20.750000000391374
31
0
0
LINE
5
108
100
AcDbEntity
8
0
100
AcDbLine
10
100
20
-20.750000000391374
30
0
11
133.12676056373027
21
-32.750000000782791
31
0
0
LINE
5
109
100
AcDbEntity
8
0
100
AcDbLine
10
133.12676056373027
20
-32.750000000782791
30
0
11
148.99999999999997
21
-32.750000000782784
31
0
0
LINE
5
110
100
AcDbEntity
8
0
100
AcDbLine
10
148.99999999999997
20
-32.750000000782784
30
0
11
148.99999999999997
21
32.749999999217231
31
0
0
LINE
5
111
100
AcDbEntity
8
0
100
AcDbLine
10
148.99999999999997
20
32.749999999217231
30
0
11
133.12676056373027
21
32.992957745831347
31
0
0
LINE
5
112
100
AcDbEntity
8
0
100
AcDbLine
10
133.12676056373027
20
32.992957745831347
30
0
11
99.999999999819465
21
21.499999999197208
31
0
0
LINE
5
113
100
AcDbEntity
8
0
100
AcDbLine
10
99.999999999819465
20
21.499999999197208
30
0
11
61.017187615419068
21
38.604703393066806
31
0
0
ARC
5
114
100
AcDbEntity
8
0
100
AcDbCircle
10
65.035177372067551
20
47.761982372953128
30
0
40
10.000000000000002
210
0
220
0
230
1
100
AcDbArc
50
198.74769870072001
51
246.30931059629251
0
LINE
5
115
100
AcDbEntity
8
0
100
AcDbLine
10
55.565746977791434
20
44.547968059363413
30
0
11
51
21
58.000000000000007
31
0
0
LINE
5
116
100
AcDbEntity
8
0
100
AcDbLine
10
51
20
58.000000000000007
30
0
11
36.000000000000021
21
80.364125166504323
31
0
0
LINE
5
117
100
AcDbEntity
8
0
100
AcDbLine
10
36.000000000000021
20
80.364125166504323
30
0
11
36.000000000000007
21
43.000000000000007
31
0
0
LINE
5
118
100
AcDbEntity
8
0
100
AcDbLine
10
36.000000000000007
20
43.000000000000007
30
0
11
45.340603842019256
21
43.000000000000007
31
0
0
ARC
5
119
100
AcDbEntity
8
0
100
AcDbCircle
10
45.340603842019256
20
42
30
0
40
1.0000000000000018
210
0
220
-0
230
1
100
AcDbArc
50
23.198590513642518
51
90
0
LINE
5
120
100
AcDbEntity
8
0
100
AcDbLine
10
46.259748872037356
20
42.393919298579078
30
0
11
48.19145030018003
21
37.88661596624496
31
0
0
ARC
5
121
100
AcDbEntity
8
0
100
AcDbCircle
10
38.999999999999069
20
33.947422980454157
30
0
40
10
210
0
220
0
230
1
100
AcDbArc
50
0
51
23.198590513642728
0
LINE
5
122
100
AcDbEntity
8
0
100
AcDbLine
10
48.999999999999069
20
33.947422980454121
30
0
11
48.999999999999069
21
12.239334038855741
31
0
0
LWPOLYLINE
5
123
100
AcDbEntity
8
0
100
AcDbPolyline
90
4
70
1
43
0.0
10
83.999999999999972
20
3.0000000000000067
10
113.99999999999997
20
3.0000000000000067
10
113.99999999999997
20
-2.9999999999999942
10
83.999999999999972
20
-2.9999999999999938
0
ENDSEC
0
SECTION
2
OBJECTS
0
DICTIONARY
5
C
100
AcDbDictionary
3
ACAD_GROUP
350
D
3
ACAD_MLINESTYLE
350
17
0
DICTIONARY
5
D
100
AcDbDictionary
0
DICTIONARY
5
1A
330
C
100
AcDbDictionary
0
DICTIONARY
5
17
100
AcDbDictionary
0
ENDSEC
0
EOF
